<svg xmlns="http://www.w3.org/2000/svg" viewBox="0 0 804.03 796.85"><defs><style>.a,.b,.c,.d,.e,.g,.h{fill:none;}.a,.b,.c,.d,.e{stroke:#7a9fab;stroke-width:11px;}.a,.b,.c,.d,.e,.f,.g,.h{stroke-miterlimit:10;}.b{stroke-dasharray:27.64 27.64;}.c{stroke-dasharray:28.72 28.72;}.d{stroke-dasharray:25.88 25.88;}.e{stroke-dasharray:27.2 27.2;}.f{fill:#9fc0c9;}.f,.g{stroke:#9fc0c9;}.f,.g,.h{stroke-width:24px;}.h{stroke:#f7f2ef;stroke-linecap:round;}.i{font-size:79px;fill:#f7f2ef;font-family:ProductSans-Bold, Product Sans;font-weight:700;}.j{letter-spacing:0em;}.k{letter-spacing:-0.02em;}.l{letter-spacing:0em;}.m{letter-spacing:0em;}.n{letter-spacing:0em;}</style></defs><polyline class="a" points="335.53 417 335.53 403.5 322.03 403.5"/><line class="b" x1="294.39" y1="403.5" x2="142.35" y2="403.5"/><polyline class="a" points="128.53 403.5 115.03 403.5 115.03 417"/><line class="c" x1="115.03" y1="445.72" x2="115.03" y2="661.14"/><polyline class="a" points="115.03 675.5 115.03 689 128.53 689"/><line class="b" x1="156.17" y1="689" x2="308.21" y2="689"/><polyline class="a" points="322.03 689 335.53 689 335.53 675.5"/><line class="c" x1="335.53" y1="646.78" x2="335.53" y2="431.36"/><polyline class="a" points="685.53 267.5 685.53 254 672.03 254"/><line class="d" x1="646.15" y1="254" x2="141.47" y2="254"/><polyline class="a" points="128.53 254 115.03 254 115.03 267.5"/><line class="e" x1="115.03" y1="294.7" x2="115.03" y2="661.9"/><polyline class="a" points="115.03 675.5 115.03 689 128.53 689"/><line class="d" x1="154.41" y1="689" x2="659.09" y2="689"/><polyline class="a" points="672.03 689 685.53 689 685.53 675.5"/><line class="e" x1="685.53" y1="648.3" x2="685.53" y2="281.1"/><line class="f" x1="115.03" x2="115.03" y2="700"/><line class="g" x1="804.03" y1="689" x2="104.03" y2="689"/><line class="h" x1="181.03" y1="462" x2="769.03" y2="224"/><text class="i" transform="translate(302.36 774.33)">Q<tspan class="j" x="64.94" y="0">u</tspan><tspan x="109.89" y="0">a</tspan><tspan class="k" x="152.15" y="0">n</tspan><tspan class="l" x="195.52" y="0">t</tspan><tspan class="j" x="227.59" y="0">i</tspan><tspan class="m" x="247.66" y="0">t</tspan><tspan x="279.73" y="0">y</tspan></text><text class="i" transform="translate(67.78 448.15) rotate(-90)">Pr<tspan class="n" x="78.92" y="0">ic</tspan><tspan x="141.65" y="0">e</tspan></text></svg>