<svg xmlns="http://www.w3.org/2000/svg" viewBox="0 0 804.03 796.85"><defs><style>.a,.b,.c,.d,.f,.g{fill:none;}.a,.b,.c,.d{stroke:#7a9fab;stroke-width:11px;}.a,.b,.c,.d,.e,.f,.g{stroke-miterlimit:10;}.b{stroke-dasharray:28.72 28.72;}.c{stroke-dasharray:28.27 28.27;}.d{stroke-dasharray:27.21 27.21;}.e{fill:#9fc0c9;}.e,.f{stroke:#9fc0c9;}.e,.f,.g{stroke-width:24px;}.g{stroke:#f7f2ef;stroke-linecap:round;}.h{font-size:79px;fill:#f7f2ef;font-family:ProductSans-Bold, Product Sans;font-weight:700;}.i{letter-spacing:0em;}.j{letter-spacing:-0.02em;}.k{letter-spacing:0em;}.l{letter-spacing:0em;}.m{letter-spacing:0em;}</style></defs><polyline class="a" points="400.53 417 400.53 403.5 387.03 403.5"/><line class="b" x1="358.31" y1="403.5" x2="142.89" y2="403.5"/><polyline class="a" points="128.53 403.5 115.03 403.5 115.03 417"/><line class="b" x1="115.03" y1="445.72" x2="115.03" y2="661.14"/><polyline class="a" points="115.03 675.5 115.03 689 128.53 689"/><line class="b" x1="157.25" y1="689" x2="372.67" y2="689"/><polyline class="a" points="387.03 689 400.53 689 400.53 675.5"/><line class="b" x1="400.53" y1="646.78" x2="400.53" y2="431.36"/><polyline class="a" points="509.53 104 509.53 90.5 496.03 90.5"/><line class="c" x1="467.76" y1="90.5" x2="142.66" y2="90.5"/><polyline class="a" points="128.53 90.5 115.03 90.5 115.03 104"/><line class="d" x1="115.03" y1="131.21" x2="115.03" y2="661.89"/><polyline class="a" points="115.03 675.5 115.03 689 128.53 689"/><line class="c" x1="156.8" y1="689" x2="481.9" y2="689"/><polyline class="a" points="496.03 689 509.53 689 509.53 675.5"/><line class="d" x1="509.53" y1="648.29" x2="509.53" y2="117.61"/><line class="e" x1="115.03" x2="115.03" y2="700"/><line class="f" x1="804.03" y1="689" x2="104.03" y2="689"/><line class="g" x1="318.03" y1="620" x2="532.03" y2="18"/><text class="h" transform="translate(302.36 774.33)">Q<tspan class="i" x="64.94" y="0">u</tspan><tspan x="109.89" y="0">a</tspan><tspan class="j" x="152.15" y="0">n</tspan><tspan class="k" x="195.52" y="0">t</tspan><tspan class="i" x="227.59" y="0">i</tspan><tspan class="l" x="247.66" y="0">t</tspan><tspan x="279.73" y="0">y</tspan></text><text class="h" transform="translate(67.78 448.15) rotate(-90)">Pr<tspan class="m" x="78.92" y="0">ic</tspan><tspan x="141.65" y="0">e</tspan></text></svg>