<svg xmlns="http://www.w3.org/2000/svg" viewBox="0 0 804.03 796.85"><defs><style>.a,.b,.c,.d,.e,.g,.n{fill:none;}.a,.b,.c,.d,.e{stroke:#7a9fab;stroke-width:11px;}.a,.b,.c,.d,.e,.f,.g,.n{stroke-miterlimit:10;}.b{stroke-dasharray:23.36 23.36;}.c{stroke-dasharray:25.19 25.19;}.d{stroke-dasharray:27.83 27.83;}.e{stroke-dasharray:27.39 27.39;}.f{fill:#9fc0c9;}.f,.g{stroke:#9fc0c9;}.f,.g,.n{stroke-width:24px;}.h{font-size:79px;fill:#f7f2ef;font-family:ProductSans-Bold, Product Sans;font-weight:700;}.i{letter-spacing:0em;}.j{letter-spacing:-0.02em;}.k{letter-spacing:0em;}.l{letter-spacing:0em;}.m{letter-spacing:0em;}.n{stroke:#f7f2ef;stroke-linecap:round;}</style></defs><polyline class="a" points="305.53 348 305.53 334.5 292.03 334.5"/><line class="b" x1="268.67" y1="334.5" x2="140.21" y2="334.5"/><polyline class="a" points="128.53 334.5 115.03 334.5 115.03 348"/><line class="c" x1="115.03" y1="373.19" x2="115.03" y2="662.9"/><polyline class="a" points="115.03 675.5 115.03 689 128.53 689"/><line class="b" x1="151.89" y1="689" x2="280.35" y2="689"/><polyline class="a" points="292.03 689 305.53 689 305.53 675.5"/><line class="c" x1="305.53" y1="650.31" x2="305.53" y2="360.6"/><polyline class="a" points="559.53 429 559.53 415.5 546.03 415.5"/><line class="d" x1="518.2" y1="415.5" x2="142.45" y2="415.5"/><polyline class="a" points="128.53 415.5 115.03 415.5 115.03 429"/><line class="e" x1="115.03" y1="456.39" x2="115.03" y2="661.81"/><polyline class="a" points="115.03 675.5 115.03 689 128.53 689"/><line class="d" x1="156.36" y1="689" x2="532.11" y2="689"/><polyline class="a" points="546.03 689 559.53 689 559.53 675.5"/><line class="e" x1="559.53" y1="648.11" x2="559.53" y2="442.69"/><line class="f" x1="115.03" x2="115.03" y2="700"/><line class="g" x1="804.03" y1="689" x2="104.03" y2="689"/><text class="h" transform="translate(302.36 774.33)">Q<tspan class="i" x="64.94" y="0">u</tspan><tspan x="109.89" y="0">a</tspan><tspan class="j" x="152.15" y="0">n</tspan><tspan class="k" x="195.52" y="0">t</tspan><tspan class="i" x="227.59" y="0">i</tspan><tspan class="l" x="247.66" y="0">t</tspan><tspan x="279.73" y="0">y</tspan></text><text class="h" transform="translate(67.78 448.15) rotate(-90)">Pr<tspan class="m" x="78.92" y="0">ic</tspan><tspan x="141.65" y="0">e</tspan></text><path class="n" d="M314,415c0,89.54,221.4,162,495,162" transform="translate(-55.97 -150)"/></svg>