<svg xmlns="http://www.w3.org/2000/svg" viewBox="0 0 804.03 796.85"><defs><style>.a,.b,.c,.d,.e,.g{fill:none;}.a,.b,.c,.d{stroke:#7a9fab;stroke-width:11px;}.a,.b,.c,.d,.e,.f,.g{stroke-miterlimit:10;}.b{stroke-dasharray:27.5 27.5;}.c{stroke-dasharray:29.14 29.14;}.d{stroke-dasharray:25.62 25.62;}.e{stroke:#f7f2ef;stroke-linecap:round;}.e,.f,.g{stroke-width:24px;}.f{fill:#9fc0c9;}.f,.g{stroke:#9fc0c9;}.h{font-size:79px;fill:#f7f2ef;font-family:ProductSans-Bold, Product Sans;font-weight:700;}.i{letter-spacing:0em;}.j{letter-spacing:-0.02em;}.k{letter-spacing:0em;}.l{letter-spacing:0em;}.m{letter-spacing:0em;}</style></defs><polyline class="a" points="444.53 355 444.53 341.5 431.03 341.5"/><line class="b" x1="403.53" y1="341.5" x2="142.28" y2="341.5"/><polyline class="a" points="128.53 341.5 115.03 341.5 115.03 355"/><line class="c" x1="115.03" y1="384.14" x2="115.03" y2="660.93"/><polyline class="a" points="115.03 675.5 115.03 689 128.53 689"/><line class="b" x1="156.03" y1="689" x2="417.28" y2="689"/><polyline class="a" points="431.03 689 444.53 689 444.53 675.5"/><line class="c" x1="444.53" y1="646.36" x2="444.53" y2="369.57"/><polyline class="a" points="444.53 240 444.53 226.5 431.03 226.5"/><line class="b" x1="403.53" y1="226.5" x2="142.28" y2="226.5"/><polyline class="a" points="128.53 226.5 115.03 226.5 115.03 240"/><line class="d" x1="115.03" y1="265.62" x2="115.03" y2="662.69"/><polyline class="a" points="115.03 675.5 115.03 689 128.53 689"/><line class="b" x1="156.03" y1="689" x2="417.28" y2="689"/><polyline class="a" points="431.03 689 444.53 689 444.53 675.5"/><line class="d" x1="444.53" y1="649.88" x2="444.53" y2="252.81"/><line class="e" x1="444.03" y1="689" x2="444.03" y2="12"/><line class="f" x1="115.03" x2="115.03" y2="700"/><line class="g" x1="804.03" y1="689" x2="104.03" y2="689"/><text class="h" transform="translate(302.36 774.33)">Q<tspan class="i" x="64.94" y="0">u</tspan><tspan x="109.89" y="0">a</tspan><tspan class="j" x="152.15" y="0">n</tspan><tspan class="k" x="195.52" y="0">t</tspan><tspan class="i" x="227.59" y="0">i</tspan><tspan class="l" x="247.66" y="0">t</tspan><tspan x="279.73" y="0">y</tspan></text><text class="h" transform="translate(67.78 448.15) rotate(-90)">Pr<tspan class="m" x="78.92" y="0">ic</tspan><tspan x="141.65" y="0">e</tspan></text></svg>