<svg xmlns="http://www.w3.org/2000/svg" viewBox="0 0 804.03 796.85"><defs><style>.a,.b,.c,.d,.e,.g,.n{fill:none;}.a,.b,.c,.d,.e{stroke:#7a9fab;stroke-width:11px;}.a,.b,.c,.d,.e,.f,.g,.n{stroke-miterlimit:10;}.b{stroke-dasharray:25.5 25.5;}.c{stroke-dasharray:27.77 27.77;}.d{stroke-dasharray:28.5 28.5;}.e{stroke-dasharray:28.64 28.64;}.f{fill:#9fc0c9;}.f,.g{stroke:#9fc0c9;}.f,.g,.n{stroke-width:24px;}.h{font-size:79px;fill:#f7f2ef;font-family:ProductSans-Bold, Product Sans;font-weight:700;}.i{letter-spacing:0em;}.j{letter-spacing:-0.02em;}.k{letter-spacing:0em;}.l{letter-spacing:0em;}.m{letter-spacing:0em;}.n{stroke:#f7f2ef;stroke-linecap:round;}</style></defs><polyline class="a" points="371.53 370 371.53 356.5 358.03 356.5"/><line class="b" x1="332.53" y1="356.5" x2="141.28" y2="356.5"/><polyline class="a" points="128.53 356.5 115.03 356.5 115.03 370"/><line class="c" x1="115.03" y1="397.77" x2="115.03" y2="661.61"/><polyline class="a" points="115.03 675.5 115.03 689 128.53 689"/><line class="b" x1="154.03" y1="689" x2="345.28" y2="689"/><polyline class="a" points="358.03 689 371.53 689 371.53 675.5"/><line class="c" x1="371.53" y1="647.73" x2="371.53" y2="383.89"/><polyline class="a" points="512.53 475 512.53 461.5 499.03 461.5"/><line class="d" x1="470.53" y1="461.5" x2="142.78" y2="461.5"/><polyline class="a" points="128.53 461.5 115.03 461.5 115.03 475"/><line class="e" x1="115.03" y1="503.64" x2="115.03" y2="661.18"/><polyline class="a" points="115.03 675.5 115.03 689 128.53 689"/><line class="d" x1="157.03" y1="689" x2="484.78" y2="689"/><polyline class="a" points="499.03 689 512.53 689 512.53 675.5"/><line class="e" x1="512.53" y1="646.86" x2="512.53" y2="489.32"/><line class="f" x1="115.03" x2="115.03" y2="700"/><line class="g" x1="804.03" y1="689" x2="104.03" y2="689"/><text class="h" transform="translate(302.36 774.33)">Q<tspan class="i" x="64.94" y="0">u</tspan><tspan x="109.89" y="0">a</tspan><tspan class="j" x="152.15" y="0">n</tspan><tspan class="k" x="195.52" y="0">t</tspan><tspan class="i" x="227.59" y="0">i</tspan><tspan class="l" x="247.66" y="0">t</tspan><tspan x="279.73" y="0">y</tspan></text><text class="h" transform="translate(67.78 448.15) rotate(-90)">Pr<tspan class="m" x="78.92" y="0">ic</tspan><tspan x="141.65" y="0">e</tspan></text><path class="n" d="M361,309c0,179.09,144.47,324,323,324" transform="translate(-55.97 -150)"/></svg>